# xmcd
#
# Track frame offsets:
# 150
# 20930
# 40220
# 59612
# 80370
# 103070
# 124395
# 141750
# 163900
# 185560
# 200125
# 219290
# 237107
# 258607
#
# Disc length: 3735 seconds
#
# Revision: 1
# Processed by: cddbd v1.4PL0 Copyright (c) Steve Scherf et al.
# Submitted via: inCDius 2.0b9
#
DISCID=d90e950e
DTITLE=Ruby Turner - Call Me By My Name
DYEAR=1998
DGENRE=R&B
TTITLE0=Call Me By My Name
TTITLE1=Reassure Me
TTITLE2=Suspicious Again
TTITLE3=Just Say The Word
TTITLE4=Brand New World
TTITLE5=Breath I Need
TTITLE6=You Were Never Mine
TTITLE7=My Intuition Tells Me
TTITLE8=Let Me Show You (My Mistakes)
TTITLE9=Alone Here Tonight
TTITLE10=Last On My List (No More)
TTITLE11=Could You Need Me Too
TTITLE12=There For You
TTITLE13=All Shall Be Well
EXTD=(p)(c) Indigo 1998
EXTT0=
EXTT1=
EXTT2=
EXTT3=
EXTT4=
EXTT5=
EXTT6=
EXTT7=
EXTT8=
EXTT9=
EXTT10=
EXTT11=
EXTT12=
EXTT13=
PLAYORDER=
